<svg xmlns="http://www.w3.org/2000/svg" width="320" height="177" viewBox="0 0 320 177">
    <defs>
        <linearGradient id="a" x1="50%" x2="50%" y1="0%" y2="100%">
            <stop offset="0%" stop-color="#151D47"/>
            <stop offset="100%" stop-color="#151D47" stop-opacity="0"/>
        </linearGradient>
    </defs>
    <g fill="none" fill-rule="evenodd" opacity=".484">
        <g opacity=".392">
            <path fill="#090F32" d="M-40.993 72.516h55.997l-4 54.296h-57.999zM127 18.219h53.997l2 54.297H127zM127 126.813h57.998l2 54.296H127zM182.998 72.516h55.998l4 54.296h-57.998zM19.005 18.219h53.998l-2 54.297H15.003zM11.003 126.813h57.999l-2 54.296h-60zM71.002 72.516H127v54.296H69.002zM234.995 18.219h53.997l6.001 54.297h-55.997zM242.997 126.813h57.998l6.001 54.296h-59.999zM294.993 72.516h55.998l8.002 54.296h-57.998z"/>
            <path fill="#3D4C9A" d="M-34.992 18.219h53.997l-4 54.297h-55.998zM-46.995 126.813h57.998l-4 54.296h-60zM15.004 72.516h55.998l-2 54.296H11.003zM180.997 18.219h53.998l4 54.297h-55.997zM184.998 126.813h57.999l4 54.296H187zM238.996 72.516h55.997l6.002 54.296h-57.998zM73.003 18.219H127v54.297H71.002zM69.002 126.813H127v54.296H67.001zM127 72.516h55.998l2 54.296H127zM288.992 18.219h53.998l8.001 54.297h-55.998zM300.995 126.813h57.998l8.002 54.296h-59.999z"/>
        </g>
        <path fill="url(#a)" d="M61 0h1619v181H61z" transform="translate(-729)"/>
    </g>
</svg>
