<svg xmlns="http://www.w3.org/2000/svg" xmlns:xlink="http://www.w3.org/1999/xlink" width="282" height="95" viewBox="0 0 282 95">
    <defs>
        <rect id="b" width="230" height="41" rx="20.5"/>
        <filter id="a" width="136.5%" height="304.9%" x="-18.3%" y="-97.6%" filterUnits="objectBoundingBox">
            <feMorphology in="SourceAlpha" operator="dilate" radius=".5" result="shadowSpreadOuter1"/>
            <feOffset dy="2" in="shadowSpreadOuter1" result="shadowOffsetOuter1"/>
            <feGaussianBlur in="shadowOffsetOuter1" result="shadowBlurOuter1" stdDeviation="13.5"/>
            <feComposite in="shadowBlurOuter1" in2="SourceAlpha" operator="out" result="shadowBlurOuter1"/>
            <feColorMatrix in="shadowBlurOuter1" values="0 0 0 0 0.384313725 0 0 0 0 0.560784314 0 0 0 0 0.776470588 0 0 0 1 0"/>
        </filter>
        <filter id="c" width="129.6%" height="265.9%" x="-14.8%" y="-78%" filterUnits="objectBoundingBox">
            <feGaussianBlur in="SourceAlpha" result="shadowBlurInner1" stdDeviation="6"/>
            <feOffset dy="1" in="shadowBlurInner1" result="shadowOffsetInner1"/>
            <feComposite in="shadowOffsetInner1" in2="SourceAlpha" k2="-1" k3="1" operator="arithmetic" result="shadowInnerInner1"/>
            <feColorMatrix in="shadowInnerInner1" values="0 0 0 0 0.597281408 0 0 0 0 0.877501868 0 0 0 0 1 0 0 0 0.5 0"/>
        </filter>
        <filter id="d" width="134.3%" height="134.3%" x="-17.2%" y="-17.2%" filterUnits="objectBoundingBox">
            <feGaussianBlur in="SourceGraphic" stdDeviation="1.622"/>
        </filter>
        <circle id="e" cx="20" cy="20" r="20"/>
        <filter id="f" width="256.9%" height="256.9%" x="-78.4%" y="-78.4%" filterUnits="objectBoundingBox">
            <feGaussianBlur in="SourceGraphic" stdDeviation="7.059"/>
        </filter>
        <filter id="h" width="256.9%" height="256.9%" x="-78.4%" y="-78.4%" filterUnits="objectBoundingBox">
            <feGaussianBlur in="SourceGraphic" stdDeviation="7.059"/>
        </filter>
    </defs>
    <g fill="none" fill-rule="evenodd" transform="translate(26 25)">
        <use fill="#000" filter="url(#a)" xlink:href="#b"/>
        <use fill="#FFF" fill-opacity="0" xlink:href="#b"/>
        <use fill="#000" filter="url(#c)" xlink:href="#b"/>
        <use stroke="#83C2FF" xlink:href="#b"/>
        <circle cx="20" cy="20" r="21" stroke="#83C2FF" stroke-width="2" filter="url(#d)" opacity=".634"/>
        <g>
            <mask id="g" fill="#fff">
                <use xlink:href="#e"/>
            </mask>
            <circle cx="20" cy="20" r="20.5" stroke="#83C2FF"/>
            <circle cx="23.5" cy=".5" r="13.5" fill="#A9D1FF" filter="url(#f)" mask="url(#g)"/>
            <circle cx="20.5" cy="44.5" r="13.5" fill="#FFA9F6" filter="url(#h)" mask="url(#g)"/>
            <circle cx="7" cy="7" r="20" fill="#FFF" mask="url(#g)" opacity=".151"/>
        </g>
        <path fill="#FFF" d="M31.784 25.586l-3.44-3.442c-.687-.683-1.821-.662-2.53.048l-1.734 1.734-.342-.19c-1.096-.608-2.594-1.438-4.172-3.016-1.581-1.583-2.414-3.084-3.021-4.18a31.307 31.307 0 0 1-.187-.334l1.163-1.161.573-.573c.71-.711.73-1.845.046-2.53L14.697 8.5c-.682-.685-1.818-.664-2.53.048l-.968.974.025.027a5.623 5.623 0 0 0-.798 1.41 5.796 5.796 0 0 0-.355 1.43c-.456 3.767 1.266 7.21 5.937 11.883 6.46 6.456 11.664 5.97 11.89 5.945a5.809 5.809 0 0 0 1.433-.36c.512-.199.99-.47 1.404-.795l.021.02.984-.964c.707-.711.728-1.845.044-2.532z"/>
        <text fill="#FFF" font-family="Nunito-SemiBold, Nunito" font-size="14" font-weight="500">
            <tspan x="51" y="24">Hotline: 1900 717171</tspan>
        </text>
    </g>
</svg>
