<svg xmlns="http://www.w3.org/2000/svg" xmlns:xlink="http://www.w3.org/1999/xlink" width="282" height="95" viewBox="0 0 282 95">
    <defs>
        <rect id="b" width="230" height="41" rx="20.5"/>
        <filter id="a" width="136.5%" height="304.9%" x="-18.3%" y="-97.6%" filterUnits="objectBoundingBox">
            <feMorphology in="SourceAlpha" operator="dilate" radius=".5" result="shadowSpreadOuter1"/>
            <feOffset dy="2" in="shadowSpreadOuter1" result="shadowOffsetOuter1"/>
            <feGaussianBlur in="shadowOffsetOuter1" result="shadowBlurOuter1" stdDeviation="13.5"/>
            <feComposite in="shadowBlurOuter1" in2="SourceAlpha" operator="out" result="shadowBlurOuter1"/>
            <feColorMatrix in="shadowBlurOuter1" values="0 0 0 0 0.384313725 0 0 0 0 0.560784314 0 0 0 0 0.776470588 0 0 0 1 0"/>
        </filter>
        <filter id="c" width="129.6%" height="265.9%" x="-14.8%" y="-78%" filterUnits="objectBoundingBox">
            <feGaussianBlur in="SourceAlpha" result="shadowBlurInner1" stdDeviation="6"/>
            <feOffset dy="1" in="shadowBlurInner1" result="shadowOffsetInner1"/>
            <feComposite in="shadowOffsetInner1" in2="SourceAlpha" k2="-1" k3="1" operator="arithmetic" result="shadowInnerInner1"/>
            <feColorMatrix in="shadowInnerInner1" values="0 0 0 0 0.597281408 0 0 0 0 0.877501868 0 0 0 0 1 0 0 0 0.5 0"/>
        </filter>
        <filter id="d" width="134.3%" height="134.3%" x="-17.2%" y="-17.2%" filterUnits="objectBoundingBox">
            <feGaussianBlur in="SourceGraphic" stdDeviation="1.622"/>
        </filter>
        <circle id="e" cx="20" cy="20" r="20"/>
        <filter id="f" width="256.9%" height="256.9%" x="-78.4%" y="-78.4%" filterUnits="objectBoundingBox">
            <feGaussianBlur in="SourceGraphic" stdDeviation="7.059"/>
        </filter>
        <filter id="h" width="256.9%" height="256.9%" x="-78.4%" y="-78.4%" filterUnits="objectBoundingBox">
            <feGaussianBlur in="SourceGraphic" stdDeviation="7.059"/>
        </filter>
    </defs>
    <g fill="none" fill-rule="evenodd" transform="translate(26 25)">
        <use fill="#000" filter="url(#a)" xlink:href="#b"/>
        <use fill="#FFF" fill-opacity="0" xlink:href="#b"/>
        <use fill="#000" filter="url(#c)" xlink:href="#b"/>
        <use stroke="#83C2FF" xlink:href="#b"/>
        <circle cx="20" cy="20" r="21" stroke="#83C2FF" stroke-width="2" filter="url(#d)" opacity=".634"/>
        <g>
            <mask id="g" fill="#fff">
                <use xlink:href="#e"/>
            </mask>
            <circle cx="20" cy="20" r="20.5" stroke="#83C2FF"/>
            <circle cx="23.5" cy=".5" r="13.5" fill="#A9D1FF" filter="url(#f)" mask="url(#g)"/>
            <circle cx="20.5" cy="44.5" r="13.5" fill="#FFA9F6" filter="url(#h)" mask="url(#g)"/>
            <circle cx="7" cy="7" r="20" fill="#FFF" mask="url(#g)" opacity=".151"/>
        </g>
        <path fill="#FFF" d="M25.512 8.005L22.393 8c-3.503 0-5.768 2.319-5.768 5.907v2.723H13.49a.49.49 0 0 0-.49.489v3.947c0 .269.22.488.49.488h3.135v9.957c0 .27.22.489.491.489h4.09a.49.49 0 0 0 .49-.489v-9.957h3.666a.49.49 0 0 0 .49-.488l.003-3.947a.494.494 0 0 0-.491-.489h-3.667v-2.309c0-1.11.265-1.673 1.712-1.673h2.101a.49.49 0 0 0 .49-.49V8.495a.49.49 0 0 0-.488-.49z"/>
        <text fill="#FFF" font-family="Nunito-SemiBold, Nunito" font-size="14" font-weight="500">
            <tspan x="51" y="24">Facebook.com/TOPIQapp</tspan>
        </text>
    </g>
</svg>
