<svg xmlns="http://www.w3.org/2000/svg" xmlns:xlink="http://www.w3.org/1999/xlink" width="282" height="95" viewBox="0 0 282 95">
    <defs>
        <rect id="b" width="230" height="41" rx="20.5"/>
        <filter id="a" width="136.5%" height="304.9%" x="-18.3%" y="-97.6%" filterUnits="objectBoundingBox">
            <feMorphology in="SourceAlpha" operator="dilate" radius=".5" result="shadowSpreadOuter1"/>
            <feOffset dy="2" in="shadowSpreadOuter1" result="shadowOffsetOuter1"/>
            <feGaussianBlur in="shadowOffsetOuter1" result="shadowBlurOuter1" stdDeviation="13.5"/>
            <feComposite in="shadowBlurOuter1" in2="SourceAlpha" operator="out" result="shadowBlurOuter1"/>
            <feColorMatrix in="shadowBlurOuter1" values="0 0 0 0 0.384313725 0 0 0 0 0.560784314 0 0 0 0 0.776470588 0 0 0 1 0"/>
        </filter>
        <filter id="c" width="129.6%" height="265.9%" x="-14.8%" y="-78%" filterUnits="objectBoundingBox">
            <feGaussianBlur in="SourceAlpha" result="shadowBlurInner1" stdDeviation="6"/>
            <feOffset dy="1" in="shadowBlurInner1" result="shadowOffsetInner1"/>
            <feComposite in="shadowOffsetInner1" in2="SourceAlpha" k2="-1" k3="1" operator="arithmetic" result="shadowInnerInner1"/>
            <feColorMatrix in="shadowInnerInner1" values="0 0 0 0 0.597281408 0 0 0 0 0.877501868 0 0 0 0 1 0 0 0 0.5 0"/>
        </filter>
        <filter id="d" width="134.3%" height="134.3%" x="-17.2%" y="-17.2%" filterUnits="objectBoundingBox">
            <feGaussianBlur in="SourceGraphic" stdDeviation="1.622"/>
        </filter>
        <circle id="e" cx="20" cy="20" r="20"/>
        <filter id="f" width="256.9%" height="256.9%" x="-78.4%" y="-78.4%" filterUnits="objectBoundingBox">
            <feGaussianBlur in="SourceGraphic" stdDeviation="7.059"/>
        </filter>
        <filter id="h" width="256.9%" height="256.9%" x="-78.4%" y="-78.4%" filterUnits="objectBoundingBox">
            <feGaussianBlur in="SourceGraphic" stdDeviation="7.059"/>
        </filter>
        <path id="i" d="M.016.14H20V28H.016z"/>
    </defs>
    <g fill="none" fill-rule="evenodd" transform="translate(26 25)">
        <use fill="#000" filter="url(#a)" xlink:href="#b"/>
        <use fill="#FFF" fill-opacity="0" xlink:href="#b"/>
        <use fill="#000" filter="url(#c)" xlink:href="#b"/>
        <use stroke="#83C2FF" xlink:href="#b"/>
        <circle cx="20" cy="20" r="21" stroke="#83C2FF" stroke-width="2" filter="url(#d)" opacity=".634"/>
        <g>
            <mask id="g" fill="#fff">
                <use xlink:href="#e"/>
            </mask>
            <circle cx="20" cy="20" r="20.5" stroke="#83C2FF"/>
            <circle cx="23.5" cy=".5" r="13.5" fill="#A9D1FF" filter="url(#f)" mask="url(#g)"/>
            <circle cx="20.5" cy="44.5" r="13.5" fill="#FFA9F6" filter="url(#h)" mask="url(#g)"/>
            <circle cx="7" cy="7" r="20" fill="#FFF" mask="url(#g)" opacity=".151"/>
        </g>
        <g>
            <g transform="translate(9 6)">
                <mask id="j" fill="#fff">
                    <use xlink:href="#i"/>
                </mask>
                <path fill="#FFF" d="M1.767 9.164c-.492 0-.91.168-1.252.503A1.623 1.623 0 0 0 0 10.872v7.2c0 .48.172.887.515 1.222.342.335.76.503 1.251.503.492 0 .907-.168 1.244-.503.338-.335.507-.743.507-1.222v-7.2c0-.469-.172-.87-.515-1.205a1.703 1.703 0 0 0-1.235-.503zM4.202 20.633c0 .514.183.95.55 1.307.365.356.811.535 1.338.535h1.27l.016 3.8c0 .48.171.888.515 1.223.343.335.754.502 1.234.502.493 0 .91-.167 1.252-.502.344-.335.515-.743.515-1.222v-3.801h2.368v3.8c0 .48.17.888.514 1.223.343.335.76.502 1.252.502.491 0 .908-.167 1.252-.502.343-.335.514-.743.514-1.222v-3.801h1.287c.514 0 .954-.178 1.32-.535.365-.357.549-.793.549-1.307V9.483H4.202v11.15zM15.968 2.702L17.187.508c.08-.145.05-.257-.087-.335-.148-.066-.262-.033-.342.102l-1.235 2.21a8.61 8.61 0 0 0-3.447-.704 8.611 8.611 0 0 0-3.448.703L7.393.274C7.313.14 7.2.108 7.05.175c-.138.077-.166.189-.086.334l1.218 2.194c-1.235.614-2.219 1.47-2.95 2.57A6.38 6.38 0 0 0 4.132 8.88H20a6.38 6.38 0 0 0-1.098-3.608c-.732-1.1-1.71-1.956-2.934-2.57zM8.928 5.89a.652.652 0 0 1-.472.192.622.622 0 0 1-.463-.192.63.63 0 0 1-.189-.46c0-.178.063-.332.19-.46a.622.622 0 0 1 .462-.193c.183 0 .34.064.472.193a.621.621 0 0 1 .197.46.619.619 0 0 1-.197.46zm7.23 0a.623.623 0 0 1-.464.192.65.65 0 0 1-.47-.192.617.617 0 0 1-.198-.46c0-.178.066-.332.197-.46a.65.65 0 0 1 .47-.193c.184 0 .34.064.464.193.126.128.19.282.19.46a.634.634 0 0 1-.19.46z" mask="url(#j)"/>
            </g>
            <path fill="#FFF" d="M32.414 16.512c-.39-.342-.865-.512-1.424-.512-.546 0-1.015.17-1.404.512-.39.34-.586.759-.586 1.255v7.448c0 .497.195.918.586 1.265.39.347.858.52 1.404.52.56 0 1.034-.173 1.424-.52.39-.347.586-.768.586-1.265v-7.448c0-.496-.195-.915-.586-1.255z"/>
        </g>
        <text fill="#FFF" font-family="Nunito-SemiBold, Nunito" font-size="14" font-weight="500">
            <tspan x="57" y="24">Tải game trên Android</tspan>
        </text>
    </g>
</svg>
